Coordinates
version=1
nRows=19
nColumns=36
inDegrees=yes

Units are S.I. units (second, meters, Newtons, ...)
If the header above contains a line with 'inDegrees', this indicates whether rotational values are in degrees (yes) or radians (no).

endheader
time	pelvis_tilt	pelvis_list	pelvis_rotation	pelvis_tx	pelvis_ty	pelvis_tz	hip_flexion_r	hip_adduction_r	hip_rotation_r	knee_angle_r	knee_angle_r_beta	ankle_angle_r	subtalar_angle_r	mtp_angle_r	hip_flexion_l	hip_adduction_l	hip_rotation_l	knee_angle_l	knee_angle_l_beta	ankle_angle_l	subtalar_angle_l	mtp_angle_l	lumbar_extension	lumbar_bending	lumbar_rotation	arm_flex_r	arm_add_r	arm_rot_r	elbow_flex_r	pro_sup_r	arm_flex_l	arm_add_l	arm_rot_l	elbow_flex_l	pro_sup_l
      0.98333330	    -26.03860010	      2.77000397	      1.14933387	     -0.88412080	      1.03628267	     -0.05830854	     60.42109391	      4.75440831	      9.59401829	     79.32050666	      1.38440401	     41.24968492	    -27.54915432	     -7.49999987	     61.86969561	     -1.63984899	     -0.51548580	     80.67435563	      1.40803313	     39.94947090	     -5.10158279	     -7.49999987	    -33.29704958	     -0.02588853	     -2.43717244	     32.02406958	    -13.61240373	     13.78038935	     28.98548050	     73.85253932	     38.51976439	    -20.82216841	     23.51559027	     39.71594873	     70.05323806
      0.98750000	    -25.66478724	      2.92012495	      1.23460455	     -0.88446723	      1.03674367	     -0.05899959	     60.13526361	      4.17467083	      9.32783014	     79.60181938	      1.38931384	     40.95517256	    -27.71536746	     -7.49999987	     61.12453361	     -1.29161865	     -0.53240397	     80.10478884	      1.39809231	     39.93786992	     -5.19861435	     -7.49999987	    -33.56589231	     -0.08280571	     -2.53317469	     33.46787914	    -13.20895888	     14.39718895	     28.63843247	     73.16049113	     40.25973901	    -20.54274000	     23.65078276	     39.78326999	     69.28280541
      0.99166670	    -25.82607669	      2.81366504	      1.40651338	     -0.89464746	      1.03533623	     -0.05797783	     61.09012940	      3.98549911	      8.95620819	     80.27423579	      1.40104972	     40.86853288	    -27.84004272	     -7.49999987	     61.81372494	     -1.19933629	     -0.36454927	     80.21195525	      1.39996272	     39.95536779	     -5.42887107	     -7.49999987	    -33.56531299	     -0.08957381	     -2.41147555	     35.52378392	    -12.84972301	     14.47618616	     29.41419312	     73.31662908	     42.38380453	    -20.41401585	     23.46039319	     40.26578289	     69.34506588
      0.99583330	    -26.70559773	      2.79617066	      1.51081881	     -0.90571520	      1.03000384	     -0.05790119	     63.65400577	      3.99293233	      8.78900543	     81.46831657	      1.42189036	     40.46350407	    -28.03685835	     -7.49999987	     64.15191044	     -0.84270197	      0.10031944	     81.18756737	      1.41699036	     39.36273569	     -6.72516440	     -7.49999987	    -32.64481833	     -0.30333109	     -1.73656791	     37.06294446	    -13.32495511	     12.75726652	     31.78026373	     80.51949279	     45.34336192	    -19.91949942	     23.97633852	     41.35298103	     73.40466769
      1.00000000	    -27.24802193	      2.86198164	      1.75175942	     -0.90280943	      1.03217486	     -0.06720511	     64.45303691	      3.71985226	      9.14180663	     81.24938185	      1.41806923	     40.44049618	    -28.05462894	     -7.49999987	     65.01886847	     -0.29975447	      0.12620879	     81.05823056	      1.41473301	     39.11982671	     -6.83210351	     -7.49999987	    -31.94899714	     -0.01115547	     -1.82193235	     39.35946191	    -13.43644478	     12.55052024	     32.67498069	     80.52718848	     47.68973010	    -19.50904503	     23.60295838	     42.22175331	     73.38132336
      1.00416670	    -27.72292435	      2.68603087	      1.97554394	     -0.88348128	      1.02798922	     -0.06426809	     64.14450758	      3.76943210	      9.22847872	     80.59501984	      1.40664846	     40.22986306	    -28.73680753	     -7.49999987	     65.00965692	      0.22014858	      0.78459571	     81.28952161	      1.41876980	     38.60895543	     -8.11134272	     -7.49999987	    -30.97957061	      0.22037365	     -0.94755088	     38.53392466	    -14.14304393	     11.12125557	     36.76799634	     79.00145907	     48.12344237	    -18.43246947	     20.81235871	     45.07302454	     71.91486896
      1.00833330	    -27.56326599	      2.13112956	      2.26345678	     -0.87651981	      1.03184955	     -0.06014118	     62.61702008	      4.21938590	      8.74671485	     79.50098904	      1.38755402	     40.36745934	    -29.32148332	     -7.49999987	     63.93058559	      0.11245793	      1.45763870	     80.96234483	      1.41305949	     38.53884157	     -8.20020489	     -7.49999987	    -30.80463093	      0.77270054	     -0.76319354	     38.19788904	    -13.62899753	      8.56027038	     40.12442915	     80.01153318	     48.53157834	    -17.54242018	     17.17516335	     46.97830625	     71.87720389
      1.01250000	    -27.46651242	      1.64051928	      2.06110770	     -0.87683394	      1.02870570	     -0.06999475	     61.68407034	      4.42733561	      8.54880251	     78.99189214	      1.37866860	     40.68326227	    -29.30040929	     -7.49999987	     63.52913035	      0.48182771	      2.25408126	     81.45974267	      1.42174072	     38.48163428	     -9.36071643	     -7.49999987	    -30.35175071	      1.54960226	     -0.73456554	     38.94842386	    -13.60035248	      8.71012816	     41.71266353	     80.36339368	     49.54701249	    -17.15658185	     16.68428420	     47.61091275	     71.89457066
      1.01666670	    -27.02123532	      1.26254892	      1.43926833	     -0.87009670	      1.03342851	     -0.06525867	     60.94215645	      4.35985292	      7.57566653	     78.96300587	      1.37816444	     40.90706179	    -28.18000637	     -7.49999987	     62.83140665	      0.63743759	      3.18932251	     82.08974901	      1.43273640	     37.95544770	    -10.78984968	     -7.49999987	    -30.52062879	      1.65684572	     -0.23698398	     39.43134406	    -13.48771282	      9.42228854	     43.30561116	     80.74404596	     50.40968820	    -16.70821539	     16.32157204	     48.29552452	     71.87213420
      1.02083330	    -26.44902477	      0.99451414	      1.27039010	     -0.86385715	      1.03453752	     -0.07053058	     59.89235676	      3.61118927	      6.52320112	     79.14000763	      1.38125370	     41.41712210	    -26.66617151	     -7.49999987	     61.62174724	      0.84996122	      3.61704551	     82.14049459	      1.43362208	     38.29920484	    -11.10523271	     -7.49999987	    -30.62393110	      1.97607710	     -0.20662567	     40.62628181	    -13.79710293	     10.87868341	     44.63118729	     81.21310555	     51.36863349	    -16.35293935	     16.40404475	     48.46782290	     71.81897193
      1.02500000	    -25.83284891	      0.87283275	      1.55755241	     -0.86346971	      1.03816933	     -0.07027715	     58.81286746	      2.74262772	      5.61367038	     78.98981117	      1.37863228	     41.70965847	    -25.50960968	     -7.49999987	     59.98220931	      0.79346755	      3.54247203	     80.97062889	      1.41320407	     38.73640209	    -10.71650371	     -7.49999987	    -30.89939165	      2.15728593	     -0.71108589	     42.38953451	    -13.67979116	     11.94702475	     45.63381424	     79.88700792	     53.37277015	    -16.08460095	     17.22511154	     48.69895205	     70.74964756
      1.02916670	    -25.20974761	      1.02183045	      2.14921387	     -0.86358219	      1.04628241	     -0.07109813	     57.49296408	      1.55122715	      4.78575144	     78.19261828	      1.36471864	     41.26179852	    -25.16150781	     -7.49999987	     58.51084036	      0.98591419	      3.21949350	     79.49122418	      1.38738359	     38.14139559	    -10.42459977	     -7.49999987	    -31.59351288	      2.23957169	     -1.31389243	     44.47775513	    -13.46612431	     12.88850647	     46.08732911	     80.17074089	     56.11743475	    -15.77995149	     18.01988092	     48.08524676	     70.61987385
      1.03333330	    -24.48925306	      1.21266903	      2.88110863	     -0.85727591	      1.04319658	     -0.06673891	     56.39726757	      0.50838704	      4.18633119	     78.18312264	      1.36455291	     41.26984748	    -25.00852989	     -7.49999987	     57.44434269	      1.20608523	      3.29718228	     78.97233181	      1.37832721	     38.10587732	     -9.52958180	     -7.49999987	    -32.03827636	      2.03114774	     -1.90990821	     45.76484219	    -13.27994869	     13.72608538	     46.46148684	     80.38185099	     58.40472653	    -15.58060027	     19.48293711	     47.54058737	     69.54158995
      1.03750000	    -24.50143116	      1.54383018	      3.25383468	     -0.86329748	      1.04599104	     -0.07129911	     56.48294240	     -0.23313056	      4.21806313	     78.05741494	      1.36235890	     41.25875027	    -24.55374634	     -7.49999987	     57.46391854	      1.64098267	      3.13622158	     78.64740195	      1.37265611	     37.74122026	     -9.36288540	     -7.49999987	    -31.83099795	      1.65188794	     -2.32297014	     47.13459771	    -12.76294914	     13.78555548	     47.18698865	     80.40545467	     60.33917973	    -15.08424937	     19.28372316	     48.17783668	     69.42571984
      1.04166670	    -24.05932846	      2.59002351	      2.99783773	     -0.86174400	      1.04589225	     -0.07042594	     56.05960785	     -0.59298036	      5.30303581	     78.09501759	      1.36301519	     41.85001710	    -23.96249693	     -7.49999987	     56.49172580	      2.13057606	      2.29118943	     77.79817227	      1.35783426	     37.50718137	     -9.76173664	     -7.49999987	    -32.16506842	      0.33497736	     -2.53069600	     48.17398018	    -12.58299761	     14.27006006	     49.83940363	     77.74820861	     61.77082203	    -14.75805210	     18.90468347	     50.58754610	     67.52665568
      1.04583330	    -24.01281483	      3.34925145	      3.07759371	     -0.85543747	      1.04287765	     -0.06575585	     56.09297098	     -0.55626141	      6.15436834	     78.79392323	      1.37521339	     42.00072267	    -24.24019676	     -7.49999987	     56.06913500	      2.29715575	      1.59526773	     77.53344218	      1.35321385	     37.78798657	     -9.11289466	     -7.49999987	    -31.61408388	     -0.71034491	     -2.82324109	     48.63696050	    -12.41462291	     14.53410990	     51.99326853	     78.34151659	     62.65210516	    -14.90658696	     19.37464892	     52.31273720	     66.97191521
      1.05000000	    -23.80511673	      3.52575618	      3.27555734	     -0.85440789	      1.04281876	     -0.06559841	     55.70051888	     -0.28930089	      6.46064894	     79.10370946	      1.38062018	     42.53854994	    -24.76640715	     -7.49999987	     55.87077888	      2.38681318	      1.53570811	     77.74988867	      1.35699155	     38.01312589	     -9.34296238	     -7.49999987	    -31.06277755	     -0.98734163	     -3.02094601	     49.02223882	    -12.41353549	     14.19411599	     53.93286285	     76.93382630	     63.06953081	    -14.80967918	     19.00231115	     54.04084067	     66.25568656
      1.05416670	    -23.65105428	      4.20029218	      3.24820441	     -0.84831812	      1.04688827	     -0.07053501	     54.98067171	     -0.47916181	      7.47078509	     79.06503757	      1.37994523	     41.95797332	    -26.01420010	     -7.49999987	     54.89538588	      3.01038855	      1.06147690	     77.10302997	      1.34570174	     38.18833333	     -9.53398124	     -7.49999987	    -30.33034916	     -1.66955169	     -3.45403950	     49.32350868	    -12.10129105	     13.73417315	     56.04818809	     77.16215582	     63.61807297	    -14.87551168	     18.89075549	     54.85761709	     66.06138115
      1.05833330	    -23.09005045	      4.10824213	      3.57587877	     -0.84166938	      1.05398179	     -0.06628966	     53.16497967	     -0.55112179	      7.30921662	     78.01871740	      1.36168350	     41.35559898	    -27.23629281	     -7.49999987	     53.48206527	      3.06761820	      1.22406994	     76.53003213	      1.33570104	     37.95383777	     -9.30413837	     -7.49999987	    -30.67080794	     -1.63048619	     -2.97277611	     49.14563594	    -12.12559349	     11.58316001	     59.45305636	     78.49643245	     65.52195851	    -14.03827252	     19.74152019	     55.26136768	     64.85777324
